<svg xmlns="http://www.w3.org/2000/svg" width="42" height="42" viewBox="0 0 42 42">
  <g id="그룹_18602" data-name="그룹 18602" transform="translate(-4127 -1373)">
    <circle id="타원_71" data-name="타원 71" cx="21" cy="21" r="21" transform="translate(4127 1373)" fill="#fff"/>
    <g id="그룹_18599" data-name="그룹 18599" transform="translate(4054.778 1396.479)">
      <path id="패스_7723" data-name="패스 7723" d="M104.492-2.218a13.2,13.2,0,0,0-.21-2.352H93.452V-.122h6.189a5.29,5.29,0,0,1-2.295,3.471V6.235h3.716A11.218,11.218,0,0,0,104.492-2.218Z" fill="#4285f4" fill-rule="evenodd"/>
      <path id="패스_7724" data-name="패스 7724" d="M93.452,9.02a10.972,10.972,0,0,0,7.61-2.786L97.346,3.349a6.912,6.912,0,0,1-3.894,1.1A6.853,6.853,0,0,1,87.017-.295H83.175v2.98A11.5,11.5,0,0,0,93.452,9.02Z" fill="#34a853" fill-rule="evenodd"/>
      <path id="패스_7725" data-name="패스 7725" d="M87.017-.294a6.913,6.913,0,0,1-.361-2.185,6.913,6.913,0,0,1,.361-2.185v-2.98H83.175a11.5,11.5,0,0,0-1.223,5.165,11.492,11.492,0,0,0,1.223,5.164Z" fill="#fbbc05" fill-rule="evenodd"/>
      <path id="패스_7726" data-name="패스 7726" d="M93.452-9.406a6.216,6.216,0,0,1,4.4,1.72l3.3-3.3a11.051,11.051,0,0,0-7.694-2.995A11.5,11.5,0,0,0,83.175-7.644l3.842,2.98A6.853,6.853,0,0,1,93.452-9.406Z" fill="#ea4335" fill-rule="evenodd"/>
    </g>
  </g>
</svg>
