<svg xmlns="http://www.w3.org/2000/svg" width="42" height="42" viewBox="0 0 42 42">
  <g id="그룹_18603" data-name="그룹 18603" transform="translate(-290 -707)">
    <g id="그룹_18600" data-name="그룹 18600" transform="translate(-3717 -666)">
      <circle id="타원_73" data-name="타원 73" cx="21" cy="21" r="21" transform="translate(4007 1373)" fill="#fee500"/>
      <path id="패스_7729" data-name="패스 7729" d="M51.771,10.025c-5.365,0-9.691,3.461-9.691,7.664,0,2.728,1.8,5.116,4.5,6.479l-.912,3.414a.284.284,0,0,0,.069.3.3.3,0,0,0,.2.076.28.28,0,0,0,.166-.069l3.934-2.651a13.509,13.509,0,0,0,1.75.124c5.36,0,9.693-3.461,9.693-7.67S57.129,10.025,51.771,10.025Z" transform="translate(3975.92 1374.975)" fill="#392020"/>
    </g>
  </g>
</svg>
